<mxfile host="app.diagrams.net" agent="Mozilla/5.0 (Windows NT 10.0; Win64; x64) AppleWebKit/537.36 (KHTML, like Gecko) Chrome/131.0.0.0 Safari/537.36" version="26.0.4">
  <diagram name="Page-1" id="_TM1ZL2QgU8ClW0cH2wS">
    <mxGraphModel dx="956" dy="1513" grid="1" gridSize="10" guides="1" tooltips="1" connect="1" arrows="1" fold="1" page="1" pageScale="1" pageWidth="850" pageHeight="1100" math="0" shadow="0">
      <root>
        <mxCell id="0" />
        <mxCell id="1" parent="0" />
        <mxCell id="LU70lodLKn2UnMK-pXDH-1" value="" style="whiteSpace=wrap;html=1;aspect=fixed;" vertex="1" parent="1">
          <mxGeometry x="180" y="110" width="380" height="380" as="geometry" />
        </mxCell>
        <mxCell id="LU70lodLKn2UnMK-pXDH-2" value="" style="shape=manualInput;whiteSpace=wrap;html=1;" vertex="1" parent="1">
          <mxGeometry x="240" y="300" width="60" height="50" as="geometry" />
        </mxCell>
        <mxCell id="LU70lodLKn2UnMK-pXDH-4" value="" style="shape=manualInput;whiteSpace=wrap;html=1;" vertex="1" parent="1">
          <mxGeometry x="430" y="300" width="60" height="50" as="geometry" />
        </mxCell>
        <mxCell id="LU70lodLKn2UnMK-pXDH-5" value="" style="shape=manualInput;whiteSpace=wrap;html=1;" vertex="1" parent="1">
          <mxGeometry x="490" y="200" width="60" height="50" as="geometry" />
        </mxCell>
        <mxCell id="LU70lodLKn2UnMK-pXDH-6" value="" style="rounded=1;whiteSpace=wrap;html=1;" vertex="1" parent="1">
          <mxGeometry x="460" y="350" width="60" height="20" as="geometry" />
        </mxCell>
        <mxCell id="LU70lodLKn2UnMK-pXDH-8" value="" style="rounded=0;whiteSpace=wrap;html=1;" vertex="1" parent="1">
          <mxGeometry x="270" y="350" width="50" height="20" as="geometry" />
        </mxCell>
        <mxCell id="LU70lodLKn2UnMK-pXDH-9" value="" style="rounded=0;whiteSpace=wrap;html=1;" vertex="1" parent="1">
          <mxGeometry x="190" y="315" width="50" height="20" as="geometry" />
        </mxCell>
        <mxCell id="LU70lodLKn2UnMK-pXDH-11" value="" style="rounded=0;whiteSpace=wrap;html=1;" vertex="1" parent="1">
          <mxGeometry x="190" y="380" width="20" height="20" as="geometry" />
        </mxCell>
        <mxCell id="LU70lodLKn2UnMK-pXDH-12" value="" style="rounded=0;whiteSpace=wrap;html=1;" vertex="1" parent="1">
          <mxGeometry x="190" y="450" width="20" height="20" as="geometry" />
        </mxCell>
        <mxCell id="LU70lodLKn2UnMK-pXDH-13" value="" style="ellipse;whiteSpace=wrap;html=1;" vertex="1" parent="1">
          <mxGeometry x="420" y="350" width="20" height="20" as="geometry" />
        </mxCell>
        <mxCell id="LU70lodLKn2UnMK-pXDH-14" value="" style="ellipse;whiteSpace=wrap;html=1;" vertex="1" parent="1">
          <mxGeometry x="470" y="370" width="20" height="20" as="geometry" />
        </mxCell>
        <mxCell id="LU70lodLKn2UnMK-pXDH-15" value="" style="endArrow=none;html=1;rounded=0;entryX=1.002;entryY=0.197;entryDx=0;entryDy=0;entryPerimeter=0;" edge="1" parent="1" target="LU70lodLKn2UnMK-pXDH-1">
          <mxGeometry width="50" height="50" relative="1" as="geometry">
            <mxPoint x="420.1" y="350" as="sourcePoint" />
            <mxPoint x="420" y="269.84000000000003" as="targetPoint" />
            <Array as="points">
              <mxPoint x="420" y="185" />
            </Array>
          </mxGeometry>
        </mxCell>
        <mxCell id="LU70lodLKn2UnMK-pXDH-16" value="" style="rounded=0;whiteSpace=wrap;html=1;" vertex="1" parent="1">
          <mxGeometry x="415" y="460" width="20" height="20" as="geometry" />
        </mxCell>
        <mxCell id="LU70lodLKn2UnMK-pXDH-17" value="" style="rounded=0;whiteSpace=wrap;html=1;" vertex="1" parent="1">
          <mxGeometry x="500" y="460" width="20" height="20" as="geometry" />
        </mxCell>
        <mxCell id="LU70lodLKn2UnMK-pXDH-18" value="" style="rounded=0;whiteSpace=wrap;html=1;" vertex="1" parent="1">
          <mxGeometry x="530" y="460" width="20" height="20" as="geometry" />
        </mxCell>
        <mxCell id="LU70lodLKn2UnMK-pXDH-19" value="" style="rounded=0;whiteSpace=wrap;html=1;" vertex="1" parent="1">
          <mxGeometry x="530" y="430" width="20" height="20" as="geometry" />
        </mxCell>
        <mxCell id="LU70lodLKn2UnMK-pXDH-20" value="" style="rounded=0;whiteSpace=wrap;html=1;" vertex="1" parent="1">
          <mxGeometry x="500" y="380" width="20" height="20" as="geometry" />
        </mxCell>
        <mxCell id="LU70lodLKn2UnMK-pXDH-21" value="" style="endArrow=none;html=1;rounded=0;entryX=0.026;entryY=0.368;entryDx=0;entryDy=0;entryPerimeter=0;" edge="1" parent="1" target="LU70lodLKn2UnMK-pXDH-1">
          <mxGeometry width="50" height="50" relative="1" as="geometry">
            <mxPoint x="320" y="350" as="sourcePoint" />
            <mxPoint x="370" y="300" as="targetPoint" />
            <Array as="points">
              <mxPoint x="320" y="250" />
            </Array>
          </mxGeometry>
        </mxCell>
        <mxCell id="LU70lodLKn2UnMK-pXDH-41" value="" style="whiteSpace=wrap;html=1;aspect=fixed;" vertex="1" parent="1">
          <mxGeometry x="190" y="570" width="380" height="380" as="geometry" />
        </mxCell>
        <mxCell id="LU70lodLKn2UnMK-pXDH-42" value="" style="shape=manualInput;whiteSpace=wrap;html=1;" vertex="1" parent="1">
          <mxGeometry x="250" y="760" width="60" height="50" as="geometry" />
        </mxCell>
        <mxCell id="LU70lodLKn2UnMK-pXDH-43" value="" style="shape=manualInput;whiteSpace=wrap;html=1;" vertex="1" parent="1">
          <mxGeometry x="270" y="620" width="60" height="50" as="geometry" />
        </mxCell>
        <mxCell id="LU70lodLKn2UnMK-pXDH-44" value="" style="shape=manualInput;whiteSpace=wrap;html=1;" vertex="1" parent="1">
          <mxGeometry x="440" y="750" width="60" height="50" as="geometry" />
        </mxCell>
        <mxCell id="LU70lodLKn2UnMK-pXDH-45" value="" style="rounded=1;whiteSpace=wrap;html=1;" vertex="1" parent="1">
          <mxGeometry x="440" y="650" width="60" height="20" as="geometry" />
        </mxCell>
        <mxCell id="LU70lodLKn2UnMK-pXDH-47" value="" style="rounded=0;whiteSpace=wrap;html=1;" vertex="1" parent="1">
          <mxGeometry x="275" y="720" width="50" height="20" as="geometry" />
        </mxCell>
        <mxCell id="LU70lodLKn2UnMK-pXDH-48" value="" style="rounded=0;whiteSpace=wrap;html=1;" vertex="1" parent="1">
          <mxGeometry x="200" y="840" width="20" height="20" as="geometry" />
        </mxCell>
        <mxCell id="LU70lodLKn2UnMK-pXDH-49" value="" style="rounded=0;whiteSpace=wrap;html=1;" vertex="1" parent="1">
          <mxGeometry x="200" y="910" width="20" height="20" as="geometry" />
        </mxCell>
        <mxCell id="LU70lodLKn2UnMK-pXDH-50" value="" style="ellipse;whiteSpace=wrap;html=1;" vertex="1" parent="1">
          <mxGeometry x="440" y="670" width="20" height="20" as="geometry" />
        </mxCell>
        <mxCell id="LU70lodLKn2UnMK-pXDH-52" value="" style="endArrow=none;html=1;rounded=0;entryX=1.002;entryY=0.197;entryDx=0;entryDy=0;entryPerimeter=0;" edge="1" parent="1" target="LU70lodLKn2UnMK-pXDH-41">
          <mxGeometry width="50" height="50" relative="1" as="geometry">
            <mxPoint x="430.1" y="810" as="sourcePoint" />
            <mxPoint x="430" y="729.84" as="targetPoint" />
            <Array as="points">
              <mxPoint x="430" y="645" />
            </Array>
          </mxGeometry>
        </mxCell>
        <mxCell id="LU70lodLKn2UnMK-pXDH-54" value="" style="rounded=0;whiteSpace=wrap;html=1;" vertex="1" parent="1">
          <mxGeometry x="510" y="920" width="20" height="20" as="geometry" />
        </mxCell>
        <mxCell id="LU70lodLKn2UnMK-pXDH-56" value="" style="rounded=0;whiteSpace=wrap;html=1;" vertex="1" parent="1">
          <mxGeometry x="520" y="650" width="20" height="20" as="geometry" />
        </mxCell>
        <mxCell id="LU70lodLKn2UnMK-pXDH-58" value="" style="endArrow=none;html=1;rounded=0;entryX=0.026;entryY=0.368;entryDx=0;entryDy=0;entryPerimeter=0;" edge="1" parent="1" target="LU70lodLKn2UnMK-pXDH-41">
          <mxGeometry width="50" height="50" relative="1" as="geometry">
            <mxPoint x="330" y="810" as="sourcePoint" />
            <mxPoint x="380" y="760" as="targetPoint" />
            <Array as="points">
              <mxPoint x="330" y="710" />
            </Array>
          </mxGeometry>
        </mxCell>
        <mxCell id="LU70lodLKn2UnMK-pXDH-60" value="" style="ellipse;whiteSpace=wrap;html=1;" vertex="1" parent="1">
          <mxGeometry x="285" y="810" width="20" height="20" as="geometry" />
        </mxCell>
        <mxCell id="LU70lodLKn2UnMK-pXDH-61" value="" style="rounded=0;whiteSpace=wrap;html=1;" vertex="1" parent="1">
          <mxGeometry x="210" y="720" width="50" height="20" as="geometry" />
        </mxCell>
        <mxCell id="LU70lodLKn2UnMK-pXDH-62" value="" style="shape=manualInput;whiteSpace=wrap;html=1;" vertex="1" parent="1">
          <mxGeometry x="510" y="750" width="60" height="50" as="geometry" />
        </mxCell>
        <mxCell id="LU70lodLKn2UnMK-pXDH-63" value="" style="shape=manualInput;whiteSpace=wrap;html=1;" vertex="1" parent="1">
          <mxGeometry x="200" y="620" width="60" height="50" as="geometry" />
        </mxCell>
        <mxCell id="LU70lodLKn2UnMK-pXDH-65" value="" style="rounded=0;whiteSpace=wrap;html=1;" vertex="1" parent="1">
          <mxGeometry x="200" y="790" width="20" height="20" as="geometry" />
        </mxCell>
        <mxCell id="LU70lodLKn2UnMK-pXDH-66" value="" style="rounded=0;whiteSpace=wrap;html=1;" vertex="1" parent="1">
          <mxGeometry x="200" y="770" width="20" height="20" as="geometry" />
        </mxCell>
        <mxCell id="LU70lodLKn2UnMK-pXDH-67" value="" style="whiteSpace=wrap;html=1;aspect=fixed;" vertex="1" parent="1">
          <mxGeometry x="720" y="135" width="380" height="380" as="geometry" />
        </mxCell>
        <mxCell id="LU70lodLKn2UnMK-pXDH-76" value="" style="endArrow=none;html=1;rounded=0;entryX=1.008;entryY=0.422;entryDx=0;entryDy=0;entryPerimeter=0;" edge="1" parent="1" target="LU70lodLKn2UnMK-pXDH-67">
          <mxGeometry width="50" height="50" relative="1" as="geometry">
            <mxPoint x="960.1" y="375" as="sourcePoint" />
            <mxPoint x="960" y="294.84000000000003" as="targetPoint" />
            <Array as="points">
              <mxPoint x="960" y="295" />
            </Array>
          </mxGeometry>
        </mxCell>
        <mxCell id="LU70lodLKn2UnMK-pXDH-79" value="" style="endArrow=none;html=1;rounded=0;entryX=-0.005;entryY=0.412;entryDx=0;entryDy=0;entryPerimeter=0;" edge="1" parent="1" target="LU70lodLKn2UnMK-pXDH-67">
          <mxGeometry width="50" height="50" relative="1" as="geometry">
            <mxPoint x="860" y="375" as="sourcePoint" />
            <mxPoint x="910" y="325" as="targetPoint" />
            <Array as="points">
              <mxPoint x="860" y="292" />
            </Array>
          </mxGeometry>
        </mxCell>
        <mxCell id="LU70lodLKn2UnMK-pXDH-86" value="" style="verticalLabelPosition=bottom;verticalAlign=top;html=1;shape=hexagon;perimeter=hexagonPerimeter2;arcSize=6;size=0.27;" vertex="1" parent="1">
          <mxGeometry x="720" y="135" width="380" height="105" as="geometry" />
        </mxCell>
        <mxCell id="LU70lodLKn2UnMK-pXDH-87" value="" style="rounded=0;whiteSpace=wrap;html=1;" vertex="1" parent="1">
          <mxGeometry x="730" y="215" width="20" height="20" as="geometry" />
        </mxCell>
        <mxCell id="LU70lodLKn2UnMK-pXDH-90" value="" style="rounded=0;whiteSpace=wrap;html=1;" vertex="1" parent="1">
          <mxGeometry x="760" y="230" width="20" height="20" as="geometry" />
        </mxCell>
        <mxCell id="LU70lodLKn2UnMK-pXDH-91" value="" style="rounded=0;whiteSpace=wrap;html=1;" vertex="1" parent="1">
          <mxGeometry x="790" y="250" width="20" height="20" as="geometry" />
        </mxCell>
        <mxCell id="LU70lodLKn2UnMK-pXDH-92" value="" style="rounded=0;whiteSpace=wrap;html=1;" vertex="1" parent="1">
          <mxGeometry x="1070" y="210" width="20" height="20" as="geometry" />
        </mxCell>
        <mxCell id="LU70lodLKn2UnMK-pXDH-93" value="" style="rounded=0;whiteSpace=wrap;html=1;" vertex="1" parent="1">
          <mxGeometry x="1070" y="265" width="20" height="20" as="geometry" />
        </mxCell>
        <mxCell id="LU70lodLKn2UnMK-pXDH-94" value="" style="rounded=0;whiteSpace=wrap;html=1;" vertex="1" parent="1">
          <mxGeometry x="1020" y="265" width="20" height="20" as="geometry" />
        </mxCell>
        <mxCell id="LU70lodLKn2UnMK-pXDH-95" value="" style="rounded=0;whiteSpace=wrap;html=1;" vertex="1" parent="1">
          <mxGeometry x="830" y="300" width="20" height="20" as="geometry" />
        </mxCell>
        <mxCell id="LU70lodLKn2UnMK-pXDH-96" value="" style="rounded=0;whiteSpace=wrap;html=1;" vertex="1" parent="1">
          <mxGeometry x="800" y="300" width="20" height="20" as="geometry" />
        </mxCell>
        <mxCell id="LU70lodLKn2UnMK-pXDH-97" value="" style="rounded=0;whiteSpace=wrap;html=1;" vertex="1" parent="1">
          <mxGeometry x="770" y="300" width="20" height="20" as="geometry" />
        </mxCell>
        <mxCell id="LU70lodLKn2UnMK-pXDH-98" value="" style="rounded=0;whiteSpace=wrap;html=1;" vertex="1" parent="1">
          <mxGeometry x="740" y="300" width="20" height="20" as="geometry" />
        </mxCell>
        <mxCell id="LU70lodLKn2UnMK-pXDH-99" value="" style="rounded=0;whiteSpace=wrap;html=1;" vertex="1" parent="1">
          <mxGeometry x="830" y="330" width="20" height="20" as="geometry" />
        </mxCell>
        <mxCell id="LU70lodLKn2UnMK-pXDH-100" value="" style="rounded=0;whiteSpace=wrap;html=1;" vertex="1" parent="1">
          <mxGeometry x="800" y="360" width="20" height="20" as="geometry" />
        </mxCell>
        <mxCell id="LU70lodLKn2UnMK-pXDH-101" value="" style="rounded=0;whiteSpace=wrap;html=1;" vertex="1" parent="1">
          <mxGeometry x="800" y="330" width="20" height="20" as="geometry" />
        </mxCell>
        <mxCell id="LU70lodLKn2UnMK-pXDH-102" value="" style="rounded=0;whiteSpace=wrap;html=1;" vertex="1" parent="1">
          <mxGeometry x="770" y="330" width="20" height="20" as="geometry" />
        </mxCell>
        <mxCell id="LU70lodLKn2UnMK-pXDH-103" value="" style="rounded=0;whiteSpace=wrap;html=1;" vertex="1" parent="1">
          <mxGeometry x="740" y="330" width="20" height="20" as="geometry" />
        </mxCell>
        <mxCell id="LU70lodLKn2UnMK-pXDH-104" value="" style="rounded=0;whiteSpace=wrap;html=1;" vertex="1" parent="1">
          <mxGeometry x="830" y="360" width="20" height="20" as="geometry" />
        </mxCell>
        <mxCell id="LU70lodLKn2UnMK-pXDH-105" value="" style="rounded=0;whiteSpace=wrap;html=1;" vertex="1" parent="1">
          <mxGeometry x="740" y="360" width="20" height="20" as="geometry" />
        </mxCell>
        <mxCell id="LU70lodLKn2UnMK-pXDH-106" value="" style="rounded=0;whiteSpace=wrap;html=1;" vertex="1" parent="1">
          <mxGeometry x="770" y="360" width="20" height="20" as="geometry" />
        </mxCell>
        <mxCell id="LU70lodLKn2UnMK-pXDH-107" value="" style="shape=manualInput;whiteSpace=wrap;html=1;" vertex="1" parent="1">
          <mxGeometry x="1030" y="300" width="60" height="50" as="geometry" />
        </mxCell>
        <mxCell id="LU70lodLKn2UnMK-pXDH-108" value="" style="rounded=0;whiteSpace=wrap;html=1;" vertex="1" parent="1">
          <mxGeometry x="1330" y="-90" width="20" height="20" as="geometry" />
        </mxCell>
        <mxCell id="LU70lodLKn2UnMK-pXDH-109" value="" style="ellipse;whiteSpace=wrap;html=1;" vertex="1" parent="1">
          <mxGeometry x="960" y="245" width="20" height="20" as="geometry" />
        </mxCell>
        <mxCell id="LU70lodLKn2UnMK-pXDH-110" value="" style="ellipse;whiteSpace=wrap;html=1;" vertex="1" parent="1">
          <mxGeometry x="1000" y="335" width="20" height="20" as="geometry" />
        </mxCell>
        <mxCell id="LU70lodLKn2UnMK-pXDH-111" value="" style="ellipse;whiteSpace=wrap;html=1;" vertex="1" parent="1">
          <mxGeometry x="810" y="430" width="20" height="20" as="geometry" />
        </mxCell>
        <mxCell id="LU70lodLKn2UnMK-pXDH-112" value="" style="ellipse;whiteSpace=wrap;html=1;" vertex="1" parent="1">
          <mxGeometry x="990" y="460" width="20" height="20" as="geometry" />
        </mxCell>
        <mxCell id="LU70lodLKn2UnMK-pXDH-113" value="" style="whiteSpace=wrap;html=1;aspect=fixed;" vertex="1" parent="1">
          <mxGeometry x="720" y="560" width="380" height="380" as="geometry" />
        </mxCell>
        <mxCell id="LU70lodLKn2UnMK-pXDH-114" value="Dialouge Here" style="rounded=0;whiteSpace=wrap;html=1;" vertex="1" parent="1">
          <mxGeometry x="720" y="560" width="380" height="60" as="geometry" />
        </mxCell>
        <mxCell id="LU70lodLKn2UnMK-pXDH-115" value="Player Option Here" style="rounded=0;whiteSpace=wrap;html=1;" vertex="1" parent="1">
          <mxGeometry x="720" y="820" width="220" height="120" as="geometry" />
        </mxCell>
        <mxCell id="LU70lodLKn2UnMK-pXDH-116" value="" style="shape=actor;whiteSpace=wrap;html=1;" vertex="1" parent="1">
          <mxGeometry x="790" y="760" width="40" height="60" as="geometry" />
        </mxCell>
        <mxCell id="LU70lodLKn2UnMK-pXDH-117" value="" style="shape=umlActor;verticalLabelPosition=bottom;verticalAlign=top;html=1;outlineConnect=0;" vertex="1" parent="1">
          <mxGeometry x="970" y="695" width="30" height="70" as="geometry" />
        </mxCell>
        <mxCell id="LU70lodLKn2UnMK-pXDH-118" value="Additional Dialouge Here" style="rounded=0;whiteSpace=wrap;html=1;" vertex="1" parent="1">
          <mxGeometry x="940" y="820" width="160" height="120" as="geometry" />
        </mxCell>
        <mxCell id="LU70lodLKn2UnMK-pXDH-119" value="" style="whiteSpace=wrap;html=1;aspect=fixed;" vertex="1" parent="1">
          <mxGeometry x="1180" y="130" width="380" height="380" as="geometry" />
        </mxCell>
        <mxCell id="LU70lodLKn2UnMK-pXDH-121" value="Dungeon And Wishes" style="rounded=0;whiteSpace=wrap;html=1;" vertex="1" parent="1">
          <mxGeometry x="1180" y="150" width="380" height="70" as="geometry" />
        </mxCell>
        <mxCell id="LU70lodLKn2UnMK-pXDH-122" value="Load Game" style="ellipse;whiteSpace=wrap;html=1;" vertex="1" parent="1">
          <mxGeometry x="1200" y="410" width="125" height="60" as="geometry" />
        </mxCell>
        <mxCell id="LU70lodLKn2UnMK-pXDH-123" value="New Game" style="ellipse;whiteSpace=wrap;html=1;" vertex="1" parent="1">
          <mxGeometry x="1200" y="330" width="125" height="60" as="geometry" />
        </mxCell>
        <mxCell id="LU70lodLKn2UnMK-pXDH-124" value="Option" style="ellipse;whiteSpace=wrap;html=1;" vertex="1" parent="1">
          <mxGeometry x="1420" y="370" width="125" height="60" as="geometry" />
        </mxCell>
        <mxCell id="LU70lodLKn2UnMK-pXDH-153" value="" style="whiteSpace=wrap;html=1;aspect=fixed;" vertex="1" parent="1">
          <mxGeometry x="1190" y="560" width="370" height="370" as="geometry" />
        </mxCell>
        <mxCell id="LU70lodLKn2UnMK-pXDH-154" value="Title" style="rounded=0;whiteSpace=wrap;html=1;" vertex="1" parent="1">
          <mxGeometry x="1190" y="620" width="90" height="40" as="geometry" />
        </mxCell>
        <mxCell id="LU70lodLKn2UnMK-pXDH-155" value="Title" style="rounded=0;whiteSpace=wrap;html=1;" vertex="1" parent="1">
          <mxGeometry x="1280" y="620" width="100" height="40" as="geometry" />
        </mxCell>
        <mxCell id="LU70lodLKn2UnMK-pXDH-156" value="Title" style="rounded=0;whiteSpace=wrap;html=1;" vertex="1" parent="1">
          <mxGeometry x="1380" y="620" width="100" height="40" as="geometry" />
        </mxCell>
        <mxCell id="LU70lodLKn2UnMK-pXDH-158" value="Title" style="rounded=0;whiteSpace=wrap;html=1;" vertex="1" parent="1">
          <mxGeometry x="1480" y="620" width="80" height="40" as="geometry" />
        </mxCell>
        <mxCell id="LU70lodLKn2UnMK-pXDH-159" value="" style="rounded=0;whiteSpace=wrap;html=1;" vertex="1" parent="1">
          <mxGeometry x="1190" y="660" width="370" height="200" as="geometry" />
        </mxCell>
        <mxCell id="LU70lodLKn2UnMK-pXDH-160" value="" style="shape=actor;whiteSpace=wrap;html=1;" vertex="1" parent="1">
          <mxGeometry x="1225" y="695" width="75" height="80" as="geometry" />
        </mxCell>
        <mxCell id="LU70lodLKn2UnMK-pXDH-161" value="Player Name" style="rounded=0;whiteSpace=wrap;html=1;" vertex="1" parent="1">
          <mxGeometry x="1217.5" y="780" width="90" height="30" as="geometry" />
        </mxCell>
        <mxCell id="LU70lodLKn2UnMK-pXDH-162" value="Additional Information" style="rounded=0;whiteSpace=wrap;html=1;" vertex="1" parent="1">
          <mxGeometry x="1350" y="690" width="180" height="40" as="geometry" />
        </mxCell>
        <mxCell id="LU70lodLKn2UnMK-pXDH-163" value="Show Party List" style="rounded=0;whiteSpace=wrap;html=1;" vertex="1" parent="1">
          <mxGeometry x="1350" y="770" width="180" height="40" as="geometry" />
        </mxCell>
        <mxCell id="LU70lodLKn2UnMK-pXDH-164" value="Additional Information" style="rounded=0;whiteSpace=wrap;html=1;" vertex="1" parent="1">
          <mxGeometry x="1350" y="730" width="180" height="40" as="geometry" />
        </mxCell>
        <mxCell id="LU70lodLKn2UnMK-pXDH-165" value="" style="whiteSpace=wrap;html=1;aspect=fixed;" vertex="1" parent="1">
          <mxGeometry x="1610" y="560" width="370" height="370" as="geometry" />
        </mxCell>
        <mxCell id="LU70lodLKn2UnMK-pXDH-166" value="Title" style="rounded=0;whiteSpace=wrap;html=1;" vertex="1" parent="1">
          <mxGeometry x="1610" y="620" width="90" height="40" as="geometry" />
        </mxCell>
        <mxCell id="LU70lodLKn2UnMK-pXDH-167" value="Title" style="rounded=0;whiteSpace=wrap;html=1;" vertex="1" parent="1">
          <mxGeometry x="1700" y="620" width="100" height="40" as="geometry" />
        </mxCell>
        <mxCell id="LU70lodLKn2UnMK-pXDH-168" value="Title" style="rounded=0;whiteSpace=wrap;html=1;" vertex="1" parent="1">
          <mxGeometry x="1800" y="620" width="100" height="40" as="geometry" />
        </mxCell>
        <mxCell id="LU70lodLKn2UnMK-pXDH-169" value="Title" style="rounded=0;whiteSpace=wrap;html=1;" vertex="1" parent="1">
          <mxGeometry x="1900" y="620" width="80" height="40" as="geometry" />
        </mxCell>
        <mxCell id="LU70lodLKn2UnMK-pXDH-170" value="" style="rounded=0;whiteSpace=wrap;html=1;" vertex="1" parent="1">
          <mxGeometry x="1610" y="660" width="370" height="200" as="geometry" />
        </mxCell>
        <mxCell id="LU70lodLKn2UnMK-pXDH-176" value="" style="rounded=0;whiteSpace=wrap;html=1;" vertex="1" parent="1">
          <mxGeometry x="1630" y="680" width="30" height="30" as="geometry" />
        </mxCell>
        <mxCell id="LU70lodLKn2UnMK-pXDH-177" value="" style="rounded=0;whiteSpace=wrap;html=1;" vertex="1" parent="1">
          <mxGeometry x="1670" y="680" width="30" height="30" as="geometry" />
        </mxCell>
        <mxCell id="LU70lodLKn2UnMK-pXDH-178" value="" style="rounded=0;whiteSpace=wrap;html=1;" vertex="1" parent="1">
          <mxGeometry x="1710" y="680" width="30" height="30" as="geometry" />
        </mxCell>
        <mxCell id="LU70lodLKn2UnMK-pXDH-179" value="" style="rounded=0;whiteSpace=wrap;html=1;" vertex="1" parent="1">
          <mxGeometry x="1750" y="680" width="30" height="30" as="geometry" />
        </mxCell>
        <mxCell id="LU70lodLKn2UnMK-pXDH-180" value="" style="rounded=0;whiteSpace=wrap;html=1;" vertex="1" parent="1">
          <mxGeometry x="1630" y="720" width="30" height="30" as="geometry" />
        </mxCell>
        <mxCell id="LU70lodLKn2UnMK-pXDH-181" value="" style="rounded=0;whiteSpace=wrap;html=1;" vertex="1" parent="1">
          <mxGeometry x="1670" y="720" width="30" height="30" as="geometry" />
        </mxCell>
        <mxCell id="LU70lodLKn2UnMK-pXDH-182" value="" style="rounded=0;whiteSpace=wrap;html=1;" vertex="1" parent="1">
          <mxGeometry x="1710" y="720" width="30" height="30" as="geometry" />
        </mxCell>
        <mxCell id="LU70lodLKn2UnMK-pXDH-183" value="" style="rounded=0;whiteSpace=wrap;html=1;" vertex="1" parent="1">
          <mxGeometry x="1750" y="720" width="30" height="30" as="geometry" />
        </mxCell>
        <mxCell id="LU70lodLKn2UnMK-pXDH-184" value="" style="rounded=0;whiteSpace=wrap;html=1;" vertex="1" parent="1">
          <mxGeometry x="1630" y="760" width="30" height="30" as="geometry" />
        </mxCell>
        <mxCell id="LU70lodLKn2UnMK-pXDH-185" value="" style="rounded=0;whiteSpace=wrap;html=1;" vertex="1" parent="1">
          <mxGeometry x="1670" y="760" width="30" height="30" as="geometry" />
        </mxCell>
        <mxCell id="LU70lodLKn2UnMK-pXDH-186" value="" style="rounded=0;whiteSpace=wrap;html=1;" vertex="1" parent="1">
          <mxGeometry x="1710" y="760" width="30" height="30" as="geometry" />
        </mxCell>
        <mxCell id="LU70lodLKn2UnMK-pXDH-187" value="" style="rounded=0;whiteSpace=wrap;html=1;" vertex="1" parent="1">
          <mxGeometry x="1750" y="760" width="30" height="30" as="geometry" />
        </mxCell>
        <mxCell id="LU70lodLKn2UnMK-pXDH-188" value="" style="rounded=0;whiteSpace=wrap;html=1;" vertex="1" parent="1">
          <mxGeometry x="1750" y="800" width="30" height="30" as="geometry" />
        </mxCell>
        <mxCell id="LU70lodLKn2UnMK-pXDH-189" value="" style="rounded=0;whiteSpace=wrap;html=1;" vertex="1" parent="1">
          <mxGeometry x="1710" y="800" width="30" height="30" as="geometry" />
        </mxCell>
        <mxCell id="LU70lodLKn2UnMK-pXDH-190" value="" style="rounded=0;whiteSpace=wrap;html=1;" vertex="1" parent="1">
          <mxGeometry x="1670" y="800" width="30" height="30" as="geometry" />
        </mxCell>
        <mxCell id="LU70lodLKn2UnMK-pXDH-191" value="" style="rounded=0;whiteSpace=wrap;html=1;" vertex="1" parent="1">
          <mxGeometry x="1630" y="800" width="30" height="30" as="geometry" />
        </mxCell>
        <mxCell id="LU70lodLKn2UnMK-pXDH-192" value="Item Title Here" style="rounded=0;whiteSpace=wrap;html=1;" vertex="1" parent="1">
          <mxGeometry x="1800" y="680" width="170" height="40" as="geometry" />
        </mxCell>
        <mxCell id="LU70lodLKn2UnMK-pXDH-193" value="Item Description Here" style="rounded=0;whiteSpace=wrap;html=1;" vertex="1" parent="1">
          <mxGeometry x="1800" y="720" width="170" height="110" as="geometry" />
        </mxCell>
        <mxCell id="LU70lodLKn2UnMK-pXDH-194" value="" style="whiteSpace=wrap;html=1;aspect=fixed;" vertex="1" parent="1">
          <mxGeometry x="1620" y="130" width="370" height="370" as="geometry" />
        </mxCell>
        <mxCell id="LU70lodLKn2UnMK-pXDH-195" value="Title" style="rounded=0;whiteSpace=wrap;html=1;" vertex="1" parent="1">
          <mxGeometry x="1620" y="190" width="90" height="40" as="geometry" />
        </mxCell>
        <mxCell id="LU70lodLKn2UnMK-pXDH-196" value="Title" style="rounded=0;whiteSpace=wrap;html=1;" vertex="1" parent="1">
          <mxGeometry x="1710" y="190" width="100" height="40" as="geometry" />
        </mxCell>
        <mxCell id="LU70lodLKn2UnMK-pXDH-197" value="Title" style="rounded=0;whiteSpace=wrap;html=1;" vertex="1" parent="1">
          <mxGeometry x="1810" y="190" width="100" height="40" as="geometry" />
        </mxCell>
        <mxCell id="LU70lodLKn2UnMK-pXDH-198" value="Title" style="rounded=0;whiteSpace=wrap;html=1;" vertex="1" parent="1">
          <mxGeometry x="1910" y="190" width="80" height="40" as="geometry" />
        </mxCell>
        <mxCell id="LU70lodLKn2UnMK-pXDH-199" value="" style="rounded=0;whiteSpace=wrap;html=1;" vertex="1" parent="1">
          <mxGeometry x="1620" y="230" width="370" height="200" as="geometry" />
        </mxCell>
        <mxCell id="LU70lodLKn2UnMK-pXDH-204" value="Map Here" style="rounded=0;whiteSpace=wrap;html=1;" vertex="1" parent="1">
          <mxGeometry x="1640" y="250" width="340" height="150" as="geometry" />
        </mxCell>
        <mxCell id="LU70lodLKn2UnMK-pXDH-216" value="Item Title Here" style="rounded=0;whiteSpace=wrap;html=1;" vertex="1" parent="1">
          <mxGeometry x="1850" y="360" width="130" height="40" as="geometry" />
        </mxCell>
      </root>
    </mxGraphModel>
  </diagram>
</mxfile>
